<?xml version="1.0" encoding="utf-8"?>
<!-- Generator: Adobe Illustrator 24.0.0, SVG Export Plug-In . SVG Version: 6.00 Build 0)  -->
<svg version="1.1" id="Layer_1" xmlns="http://www.w3.org/2000/svg" xmlns:xlink="http://www.w3.org/1999/xlink" x="0px" y="0px"
	 viewBox="0 0 538.8 81.9" style="enable-background:new 0 0 538.8 81.9;" xml:space="preserve">
<style type="text/css">
	.st0{fill:#3855A2;}
	.st1{clip-path:url(#SVGID_2_);}
	.st2{fill:none;stroke:#3855A2;stroke-miterlimit:10;}
</style>
<g id="surface1">
	<path class="st0" d="M52.4,66.9c-4.6,0-44.3,0-44.3,0C6,66.8-0.5,65.4,2.3,54.8c3.8-8.9,17.2-41.9,17.2-41.9
		c2-4.6,3.6-6.1,10.5-6.1c9.2,0,44.9,0,44.9,0L67,24.1H43.3c-2.5,0-4.7-0.5-7,5.2c-2.3,5.7-6.7,16.7-6.7,16.7
		c-0.6,1.7-1.6,5.1,2.6,5.1s25.8,0,25.8,0L52.4,66.9"/>
	<path class="st0" d="M262.6,66.9l23-61.5h19.1l-22.3,61.5H262.6"/>
	<path class="st0" d="M356.3,66.7L375.4,19c10.6,0,49.4,0,49.4,0c2,0,9.3,2.4,7,10.2c-2.4,7-13.2,37.5-13.2,37.5h-22.5l11.2-28.9
		c0.2-1.4,1.5-5.1-2.5-5.3c-4,0-12.6,0-12.6,0l-13.9,34.3L356.3,66.7"/>
	<path class="st0" d="M110.3,35.8c-0.7,2.6-4.2,12.9-4.2,12.9c-0.8,1.8-1.8,4-4.6,4s-11.9,0-11.9,0c-1.7-0.2-3.8-0.5-2.5-4.8
		c3.6-8.6,5.5-12.9,5.5-12.9c0.8-1.2,1.1-2.5,4.9-2.5s10,0,10,0C108.9,32.8,111,33.2,110.3,35.8z M129.9,19.1c0,0-40.3,0-46.4,0
		c-6.2,0-7.6,2.7-9.1,5.1c0,0-8.7,22.8-13.2,33.6c-1.7,8.2,3.4,9,5.2,9c0,0,41.8,0,48.1,0c6.3,0,7.7-4.2,8.9-6.7
		c0,0,10.8-27.8,12.5-32.1C137.5,21.6,132.3,19.4,129.9,19.1"/>
	<path class="st0" d="M179.7,36.8c-1.4,3.8-5.5,13.4-5.5,13.4c-0.5,1.1-1.1,2.5-4.2,2.5c-3.1,0-12.6,0.1-12.6,0.1
		c-1.1-0.2-3.2-0.4-1.5-4.6s6.1-15.6,6.1-15.6c7.8,0,16,0,16,0C179.1,32.7,181.1,33,179.7,36.8z M200,19.1c0,0-50,0-53.9,0
		c0,0-18.3,45.4-24.2,59.6l22.9-0.1l5.6-11.8c0,0,25.5,0,32.4,0c6.9-0.4,8.7-5.3,9.6-7.6c0,0,10.7-27.3,12.2-32.2
		C206.2,20.8,202.1,19.6,200,19.1"/>
	<path class="st0" d="M247.8,37.7c-5.3,0-17.2,0-17.2,0c-3.9,0-4.9-5.8,0.2-6.2c9.4,0,17.3,0,17.3,0
		C251.9,31.1,251.9,37.9,247.8,37.7z M264.4,19.1c0,0-36.6,0-42.9,0c-6.3,0-6.9,2.5-8.1,4.5c0,0-9.4,22.8-13.8,33
		c-3,9.7,3.9,10.2,6.2,10.2H255l5.8-14c0,0-24.8,0-35.4,0c-2.9-0.4-2.5-4.8,0.2-4.6c0,0,27.6,0,31.8,0c4.3,0,6.2-3.7,7.1-5.5
		c0,0,4.4-13.1,5.7-16.9C271.5,20.1,267,19.1,264.4,19.1"/>
	<path class="st0" d="M332.3,55.7c-5.3,0-17.2,0-17.2,0c-3.9,0-4.9-5.8,0.2-6.2c9.4,0,17.3,0,17.3,0C336.3,49.2,336.3,56,332.3,55.7
		z M357.1,19.1h-48.3l-5.7,14.1c0,0,30.5,0,37.3,0c3.4,0,2.9,4.6-0.9,4.6c0,0-26.1,0-32.3,0c-6.2,0-7.6,4.2-8.8,6.4
		c0,0-3.3,10.5-5.2,15.7c-1.3,4.9,2.7,6.8,4.9,6.9c0,0,38.3,0,43.9,0c5.7,0,6.8-2.9,7.8-4.8c0,0,10-24.2,13.3-32.2
		C366.3,21,359,19.6,357.1,19.1"/>
	<path class="st0" d="M481,36.4c-1.2,3.1-4.9,13.2-4.9,13.2c-0.8,1.3-1.7,3.2-5.3,3.2c-3.7,0-12.8,0-12.8,0c-0.8,0-5-0.1-4-4.3
		c2.3-6.2,4.3-11.8,4.3-11.8c1.1-1.9,2-4.3,5.6-4.3c3.6,0,14.1,0,14.1,0C479.5,32.4,482.2,33.3,481,36.4z M494.1,5.6l-5.5,13.5
		c0,0-31.4,0-40.6,0c-4,0-5.8,3.6-6.3,4.6c0,0-9.3,26.8-12.2,35.3c-0.9,5.6,1.8,7.8,4.9,7.8h56.1l23.8-61.3H494.1"/>
	<path class="st0" d="M525.1,14.5h2.3c0.5,0,0.9-0.1,1.1-0.1c0.3-0.1,0.5-0.3,0.6-0.5c0.1-0.2,0.2-0.5,0.2-0.7
		c0-0.4-0.1-0.7-0.4-0.9c-0.3-0.2-0.7-0.4-1.3-0.4h-2.5V14.5z M524.1,19v-8h3.5c0.7,0,1.3,0.1,1.6,0.2c0.4,0.1,0.7,0.4,0.9,0.8
		c0.2,0.4,0.3,0.8,0.3,1.2c0,0.6-0.2,1-0.6,1.4c-0.4,0.4-0.9,0.6-1.7,0.7c0.3,0.1,0.5,0.3,0.6,0.4c0.3,0.3,0.6,0.6,0.9,1.1l1.4,2.2
		h-1.3l-1.1-1.7c-0.3-0.5-0.6-0.8-0.8-1.1c-0.2-0.3-0.4-0.4-0.5-0.5s-0.3-0.2-0.5-0.2c-0.1,0-0.3,0-0.6,0h-1.2V19H524.1"/>
	<g>
		<defs>
			<rect id="SVGID_1_" x="513.6" y="2" width="21" height="26"/>
		</defs>
		<clipPath id="SVGID_2_">
			<use xlink:href="#SVGID_1_"  style="overflow:visible;"/>
		</clipPath>
		<g class="st1">
			<path class="st2" d="M534.1,14.9c0,3.9-3.2,7.1-7.1,7.1c-3.9,0-7.1-3.2-7.1-7.1c0-3.9,3.2-7.1,7.1-7.1
				C530.9,7.8,534.1,11,534.1,14.9z"/>
		</g>
	</g>
</g>
</svg>
