<?xml version="1.0" encoding="utf-8"?>
<!-- Generator: Adobe Illustrator 24.0.0, SVG Export Plug-In . SVG Version: 6.00 Build 0)  -->
<svg version="1.1" id="Layer_1" xmlns="http://www.w3.org/2000/svg" xmlns:xlink="http://www.w3.org/1999/xlink" x="0px" y="0px"
	 viewBox="0 0 556 121.9" style="enable-background:new 0 0 556 121.9;" xml:space="preserve">
<style type="text/css">
	.st0{fill-rule:evenodd;clip-rule:evenodd;fill:#008791;}
</style>
<g id="Layer_x0020_1">
	<g id="_767002032">
		<g>
			<g>
				<path class="st0" d="M541.3,44.8c-6.3-7.4-15.5-11.1-27.8-11.1c-5.6,0-10.6,0.9-15.2,2.8c-4.6,1.9-8.5,4.7-11.8,8.2
					c-2,2.2-3.7,4.7-5.2,7.6c-0.9,1.7-3.1,7-3.9,15c-0.5,4.4-0.6,9.9-2.2,16.4c-2.9,12.2-12.5,16.3-19.3,17.8
					c-2.5,0.5-4.8,0.6-7.3,0.6c-4,0-7.3-0.6-9.9-2c-2.6-1.4-4.6-3.2-6.1-5.6c-1.5-2.4-2.6-5.1-3.2-8.2c-0.6-3.1-0.9-6.5-0.9-10
					c0-3.5,0.4-6.8,1.1-10c0.7-3.2,1.8-6,3.5-8.5c1.6-2.5,3.7-4.5,6.1-5.9c2.6-1.5,5.5-2.2,8.9-2.2c3,0,5.8,0.4,8.5,1
					c2.6,0.6,5.2,1.5,7.7,2.4c1.3,0.5,2.1,0.6,2.6,0.5l1.3-1.6l3.8-9c0.5-1,0.6-1.8,0.5-2.3l-1.7-1.6c-3.5-1.8-7.2-3.2-11.1-4.1
					c-3.9-0.8-8-1.3-12.2-1.3c-5.8,0-10.9,1-15.4,3c-4.6,2-8.5,4.8-11.7,8.6c-3.2,3.7-5.8,8.2-7.5,13.5c-1.7,5.3-2.6,11.1-2.6,17.6
					c0,13.7,3,24.1,9.1,31c6.1,6.9,14.9,10.4,26.4,10.4h2.3l0,0c6.9,0,12.9-1,17.9-2.7l2.4-0.9l0.5-0.2l2.2-1l0.6-0.4l1.3-0.6
					l0.5-0.4c6.6-3.8,10.7-9.3,14.2-14.2c6.1-8.9,6.6-24.3,6.6-24.3l0,0c0.1-2.9,0.5-5.8,1.1-8.4c0.7-3.3,2-6.1,3.7-8.5
					c1.6-2.4,3.7-4.3,6.1-5.7c2.5-1.4,5.3-2.1,8.6-2.1c3.7,0,6.8,0.7,9.1,2.2c2.4,1.5,4.3,3.5,5.7,5.9c1.4,2.6,2.4,5.4,2.9,8.8
					c0.5,3.3,0.8,6.8,0.8,10.5c0,3.7-0.4,7-1,10.3c-0.7,3.2-1.7,6.1-3.2,8.6s-3.5,4.5-5.9,5.9c-2.5,1.5-5.5,2.3-9,2.3
					c0,0-8.3,0.4-14.8-4.4l0,0c-1.9-1.3-2.9,0.6-2.9,0.6l0,0c-1.5,2.6-3.2,5.3-5.3,7.8l0,0c0,0-1.4,1.4,0,2.6
					c2.9,3.2,9.6,8.2,22.8,8.2c12.5,0,21.9-3.7,28.2-11c6.3-7.3,9.5-17.8,9.5-31.4C550.8,62.4,547.6,52.2,541.3,44.8L541.3,44.8
					L541.3,44.8z M39.7,32.4c-5.3,0-10.2,0.9-14.8,2.8c-4.5,1.9-8.4,4.7-11.6,8.3c-3.2,3.7-5.8,8.1-7.6,13.3C3.9,62.2,3,68.2,3,75
					c0,14.4,3.3,26.2,9.9,32.9c6.6,6.7,16.1,10,28.5,10c4.2,0,8.6-0.5,13.2-1.4c4.6-0.9,8.9-2.6,12.8-4.9c1.5-0.7,1.8-1.9,1.1-3.6
					l-4.2-8.8c-0.6-1.4-1.7-1.6-3.4-0.9c-2.4,1.1-5.1,2.1-8.3,2.9c-3.2,0.8-6.4,1.2-9.7,1.2c-3,0-5.8-0.4-8.3-1.1
					c-2.6-0.7-4.8-1.9-6.8-3.7c-1.9-1.7-3.5-3.9-4.7-6.6c-1.1-2.7-1.7-7.2-1.8-11.2l35.8,0c0,0,5,0,7.8-0.8
					c8.4-2.5,9.3-10.2,9.3-14.9c0-9.7-3.1-17.3-8.2-22.7C60.2,35.4,51.6,32.4,39.7,32.4L39.7,32.4z M21.9,67c0.1-2.6,0.6-5,1.6-7.4
					c0.9-2.4,2.1-4.5,3.7-6.3s3.4-3.3,5.6-4.4c2.1-1.1,4.6-1.6,7.4-1.6c3.5,0,6.3,0.5,8.6,1.6c2.2,1,3.9,2.5,5.2,4.2
					c1.3,1.8,2.2,3.8,2.6,6.2c0.5,2.4,0.7,4.9,0.7,7.7L21.9,67L21.9,67z M191.4,44c-2.8-3.3-6.5-5.8-11-7.7
					c-4.6-1.8-10-2.7-16.3-2.7c-14.9,0-22,4.7-25.9,7.5c-3.4-2.6-7.2-4.5-11.5-5.7c-4.4-1.2-8.7-1.8-15-1.8c-1.2,0-2.7,0.1-4.5,0.2
					c-1.7,0.1-3.6,0.2-5.3,0.3c-1.8,0.1-3.5,0.3-5,0.5c-1.6,0.2-5.3,0.5-8.7,2.3c-1.4,0.7-2.5,1.6-3.2,2.7c-0.7,1.1-1.2,2.3-1.5,3.7
					c-0.3,1.5-0.4,3.1-0.4,4.9v65.4c0,1.1,0.3,1.8,0.7,2.2c0.5,0.3,1.2,0.5,2.2,0.5l12.1,0c1.1,0,1.9-0.2,2.3-0.5
					c0.5-0.3,0.6-1,0.6-2.2V50c0.7-0.1,1.6-0.3,2.6-0.4c1.1-0.2,2.2-0.3,3.3-0.3c1.1-0.1,2.2-0.1,3.2-0.2c1,0,1.8-0.1,2.5-0.1
					c4.3,0,6.8,0.5,9.5,1.6c2.7,1.1,4.8,2.7,6.3,4.7c1.5,2.1,2.5,4.6,3.1,7.4c0.5,2.9,0.8,6.1,0.8,9.7v41.1c0,1.1,0.3,1.8,0.7,2.2
					c0.5,0.3,1.2,0.5,2.2,0.5l11.9,0c1.1,0,1.9-0.2,2.4-0.5c0.5-0.3,0.7-1,0.7-2.2V72.8c0-3.9-0.2-7.5-0.6-10.8
					c-0.4-3-1.1-5.8-2.2-8.5c1.7-1.4,6-4.5,14.2-4.5c7.4,0,12.6,2,15.6,6s4.5,10.1,4.5,18.4v40c0,1.1,0.2,1.8,0.7,2.2
					c0.5,0.3,1.2,0.5,2.2,0.5l11.9,0c1.1,0,1.9-0.2,2.4-0.5c0.5-0.3,0.7-1,0.7-2.2V71.2c0-5.6-0.6-10.7-2-15.3
					C196.3,51.3,194.2,47.3,191.4,44L191.4,44z M274.3,45.3c-2.8-3.7-6.5-6.6-11-8.6c-4.5-2.1-9.8-3.1-15.9-3.1
					c-2.7,0-5.9,0.3-9.5,0.7c-3.6,0.5-6.8,1.2-9.8,2.1L228,6.6c0-1.2-0.2-2-0.6-2.3c-0.5-0.3-1.2-0.5-2.3-0.5l-11.9,0
					c-1.1,0-1.9,0.2-2.4,0.5c-0.5,0.4-0.6,1.1-0.6,2.2v104.1c0,4.8,4.1,5.4,4.1,5.4c48.9,6.5,56-6.6,59.1-10.3
					c3.2-3.8,5.5-8.4,7-13.6c1.5-5.2,2.2-11,2.2-17.1c0-5.9-0.7-11.5-2.1-16.5C279.1,53.3,277,49,274.3,45.3L274.3,45.3L274.3,45.3z
					 M262.6,88.2c-1,3.4-2.5,6.1-4.3,8.3c-1.8,2.2-4.1,3.7-6.8,4.7c-2.6,1-5.6,1.5-8.8,1.5c-2.1,0-12.3,0.5-14.8-0.4V51.4
					c3.3-1,6.4-1.7,9.4-2c3-0.3,5.3-0.5,6.9-0.5c6.2,0,11,2.2,14.5,6.6c3.5,4.4,5.3,11.1,5.3,20.2C264.1,80.6,263.7,84.8,262.6,88.2
					L262.6,88.2L262.6,88.2z M334.8,48.7c2.9,0,2.9-2,2.9-2V35c0-2.6-2.8-2.6-2.8-2.6c-13.2,0.3-21.8,0.8-27.5,1.4
					c-3.7,0.3-6.4,0.8-8,1.3c-2,0.5-2.4,0.8-2.4,0.8c-1.5,0.6-2.6,1.5-3.3,2.6c-1.4,2-2.1,5-2.1,9.1v66c0,1.1,0.3,1.8,0.7,2.2
					c0.5,0.3,1.2,0.5,2.2,0.5l11.9,0c1.1,0,1.9-0.2,2.4-0.5c0.5-0.3,0.7-1,0.7-2.2v-64C309.5,49.6,311.1,48.9,334.8,48.7L334.8,48.7
					L334.8,48.7z M388.5,36.9c-5.4-2.6-13.9-4.1-38.9-4.5c-3.3,0-3.1,2.6-3.1,2.6v11.6c0,0,0.1,2.1,2.3,2.1
					c27,0.2,27.1,0.8,27.1,0.8c2.1,0.6,3.7,1.6,4.8,2.8c1.2,1.2,2,2.6,2.4,4.3c0.4,1.6,0.6,3.5,0.6,5.4v2.6h-17.3
					c-6.1,0-11.3,0.7-15.6,2.3s-7.8,3.6-10.4,6c-2.6,2.6-4.6,5.4-5.8,8.8c-1.2,3.4-1.7,6.8-1.7,10.4c0,3.5,0.5,6.8,1.6,10
					c1,3.1,2.8,5.8,5.5,8.1c2.6,2.3,6.1,4.2,10.6,5.6c4.5,1.4,10,2.1,16.8,2.1c2.5,0,5-0.1,7.8-0.3c2.7-0.2,5.5-0.5,8.2-0.8
					c2.7-0.4,5.5-1,8-1.6c2.6-0.7,5-1.6,7.3-2.6c1.9-0.9,2.9-2.6,2.9-5.1V61.3c0-9-2.5-15.9-7.5-20.6
					C392.6,39.2,390.7,37.9,388.5,36.9L388.5,36.9L388.5,36.9z M383.4,101c-1.4,0.5-2.8,0.9-4.4,1.3c-1.6,0.3-3.1,0.5-4.6,0.7
					c-1.5,0.2-2.8,0.4-4.1,0.4c-1.3,0.1-2.3,0.1-3,0.1c-4.9,0-8.9-0.8-11.9-2.6c-3-1.7-4.5-4.8-4.5-9.2c0-3.1,0.5-5.5,1.7-7.2
					s2.6-3.1,4.5-4c1.8-0.9,3.7-1.5,5.7-1.6c2-0.2,3.8-0.3,5.6-0.3l14.8,0V101H383.4L383.4,101z"/>
			</g>
		</g>
	</g>
</g>
</svg>
