<?xml version="1.0" encoding="utf-8"?>
<!-- Generator: Adobe Illustrator 27.2.0, SVG Export Plug-In . SVG Version: 6.00 Build 0)  -->
<svg version="1.1" id="Layer_1" xmlns="http://www.w3.org/2000/svg" xmlns:xlink="http://www.w3.org/1999/xlink" x="0px" y="0px"
	 viewBox="0 0 438 153" style="enable-background:new 0 0 438 153;" xml:space="preserve">
<style type="text/css">
	.st0{fill:#fff;}
	.st1{fill:#95CB6E;}
	.st2{fill:#B7DBE0;}
	.st3{fill:#8F7AB8;}
	.st4{fill:#006FBA;}
</style>
<g>
	<g>
		<path class="st0" d="M61.05,74.99h22.19v73.95H61.05v-6.95c-5.23,6.02-12.57,9.02-22.04,9.02c-9.76,0-18.1-3.77-25-11.31
			c-6.9-7.54-10.35-16.79-10.35-27.73s3.45-20.19,10.35-27.73c6.9-7.54,15.23-11.31,25-11.31c9.47,0,16.81,3.01,22.04,9.02V74.99z
			 M30.73,125.13c3.25,3.25,7.49,4.88,12.72,4.88c5.23,0,9.47-1.63,12.72-4.88c3.25-3.25,4.88-7.64,4.88-13.16
			c0-5.52-1.63-9.91-4.88-13.16c-3.25-3.25-7.49-4.88-12.72-4.88c-5.23,0-9.47,1.63-12.72,4.88c-3.25,3.25-4.88,7.64-4.88,13.16
			C25.85,117.49,27.48,121.88,30.73,125.13z"/>
		<path class="st0" d="M119.77,96.59c0,1.48,1.26,2.69,3.77,3.62c2.51,0.94,5.55,1.87,9.1,2.81c3.55,0.94,7.1,2.14,10.65,3.62
			c3.55,1.48,6.58,3.92,9.1,7.32c2.51,3.4,3.77,7.67,3.77,12.79c0,7.99-2.96,14.03-8.87,18.12c-5.92,4.09-13.22,6.14-21.89,6.14
			c-15.58,0-26.18-5.87-31.8-17.6l19.23-10.95c1.97,5.82,6.16,8.73,12.57,8.73c5.32,0,7.99-1.53,7.99-4.59
			c0-1.48-1.26-2.71-3.77-3.7c-2.51-0.98-5.55-1.95-9.1-2.88c-3.55-0.94-7.1-2.17-10.65-3.7c-3.55-1.53-6.58-3.92-9.1-7.17
			c-2.51-3.25-3.77-7.25-3.77-11.98c0-7.69,2.79-13.66,8.36-17.9c5.57-4.24,12.45-6.36,20.63-6.36c6.11,0,11.68,1.36,16.71,4.07
			c5.03,2.71,9.07,6.63,12.13,11.76l-18.93,10.21c-2.37-4.34-5.67-6.51-9.91-6.51C121.84,92.44,119.77,93.83,119.77,96.59z"/>
		<path class="st0" d="M186.33,120.84c2.56,6.9,8.48,10.35,17.75,10.35c6.01,0,10.75-1.87,14.2-5.62l17.75,10.21
			c-7.3,10.16-18.05,15.24-32.24,15.24c-12.42,0-22.36-3.7-29.8-11.09c-7.45-7.4-11.17-16.71-11.17-27.96
			c0-11.14,3.67-20.43,11.02-27.88c7.34-7.44,16.79-11.17,28.32-11.17c10.75,0,19.7,3.72,26.85,11.17
			c7.15,7.45,10.72,16.74,10.72,27.88c0,3.16-0.3,6.11-0.89,8.87H186.33z M185.89,104.28h31.8c-2.17-7.79-7.4-11.69-15.68-11.69
			C193.43,92.59,188.05,96.49,185.89,104.28z"/>
		<path class="st0" d="M295.63,72.92c7.89,0,14.47,2.71,19.75,8.14c5.27,5.42,7.91,12.92,7.91,22.48v45.41H301.1v-42.15
			c0-4.34-1.21-7.67-3.62-9.98c-2.42-2.32-5.5-3.48-9.24-3.48c-4.24,0-7.59,1.28-10.06,3.85c-2.47,2.57-3.7,6.36-3.7,11.39v40.38
			h-22.19V45.41h22.19v36.53C278.92,75.93,285.97,72.92,295.63,72.92z"/>
	</g>
	<polygon class="st1" points="360.94,3.24 341.86,14.25 359.86,45.42 323.87,45.42 323.87,67.45 359.86,67.45 366.22,56.44
		378.93,34.41 	"/>
	<polygon class="st2" points="398.01,45.42 416,14.25 396.93,3.24 378.93,34.41 385.29,45.42 391.65,56.44 398.01,67.45 434,67.45
		434,45.42 	"/>
	<polygon class="st3" points="398.01,67.45 385.29,67.45 359.86,67.45 341.86,98.62 360.94,109.63 378.93,78.47 396.93,109.63
		416,98.62 	"/>
	<polygon class="st4" points="372.57,45.42 359.86,67.45 372.57,67.45 398.01,67.45 391.65,56.44 378.93,34.41 	"/>
</g>
</svg>
